<svg width="11" height="9" viewBox="0 0 11 9" fill="none" xmlns="http://www.w3.org/2000/svg">
	<path d="M3.40287 7.29482L1.10914 4.78984C1.04916 4.72354 0.97773 4.6709 0.898982 4.63497C0.820235 4.59904 0.73574 4.58054 0.650397 4.58054C0.565054 4.58054 0.480559 4.59904 0.401812 4.63497C0.323064 4.6709 0.25163 4.72354 0.191651 4.78984C0.130939 4.85534 0.082737 4.93336 0.0498386 5.01936C0.0169402 5.10536 0 5.19763 0 5.29084C0 5.38404 0.0169402 5.47632 0.0498386 5.56232C0.082737 5.64832 0.130939 5.72633 0.191651 5.79183L2.93757 8.79066C3.19316 9.06978 3.60603 9.06978 3.86162 8.79066L10.8083 1.21129C10.8691 1.14579 10.9173 1.06778 10.9502 0.981777C10.9831 0.895777 11 0.803501 11 0.710298C11 0.617095 10.9831 0.524818 10.9502 0.438818C10.9173 0.352818 10.8691 0.274805 10.8083 0.209302C10.7484 0.142998 10.6769 0.0903568 10.5982 0.0544285C10.5194 0.0185002 10.4349 0 10.3496 0C10.2643 0 10.1798 0.0185002 10.101 0.0544285C10.0223 0.0903568 9.95084 0.142998 9.89086 0.209302L3.40287 7.29482Z" fill="#FEA803"/>
</svg>
