<svg display="none" xmlns="http://www.w3.org/2000/svg">

	<!-- location -->
	<symbol id="location" viewBox="0 0 22 28">
		<g>
			<path d="M11 0C8.08369 0.00344047 5.28779 1.16347 3.22564 3.22563C1.16348 5.28778 0.00345217 8.08367 1.17029e-05 11C-0.00348119 13.3832 0.774992 15.7018 2.21601 17.6C2.21601 17.6 2.51601 17.995 2.56501 18.052L11 28L19.439 18.047C19.483 17.994 19.784 17.6 19.784 17.6L19.785 17.597C21.2253 15.6996 22.0034 13.3821 22 11C21.9966 8.08367 20.8365 5.28778 18.7744 3.22563C16.7122 1.16347 13.9163 0.00344047 11 0ZM11 15C10.2089 15 9.43553 14.7654 8.77773 14.3259C8.11993 13.8864 7.60724 13.2616 7.30449 12.5307C7.00174 11.7998 6.92253 10.9956 7.07687 10.2196C7.23121 9.44372 7.61217 8.73098 8.17158 8.17157C8.73099 7.61216 9.44373 7.2312 10.2197 7.07686C10.9956 6.92252 11.7998 7.00173 12.5307 7.30448C13.2616 7.60723 13.8864 8.11992 14.3259 8.77772C14.7654 9.43552 15 10.2089 15 11C14.9987 12.0605 14.5768 13.0771 13.827 13.827C13.0771 14.5768 12.0605 14.9987 11 15Z" />
		</g>
	</symbol>

	<!-- mail -->
	<symbol id="mail" viewBox="0 0 29 23">
		<g>
			<path d="M29 6.624V18.3281C29.0001 19.5214 28.5395 20.6696 27.7129 21.537C26.8862 22.4043 25.7561 22.9253 24.5543 22.9928L24.2875 23H4.7125C3.5088 23.0001 2.3507 22.5435 1.47577 21.724C0.600832 20.9044 0.0753981 19.784 0.00725017 18.5926L0 18.3281V6.624L13.9954 13.892C14.1511 13.9728 14.3242 14.0151 14.5 14.0151C14.6758 14.0151 14.8489 13.9728 15.0046 13.892L29 6.624ZM4.7125 3.39323e-08H24.2875C25.4556 -0.000139459 26.5821 0.429806 27.4486 1.20645C28.315 1.98309 28.8596 3.05107 28.9768 4.20325L14.5 11.7214L0.0232 4.20325C0.135609 3.09682 0.642422 2.06643 1.45254 1.29729C2.26265 0.52815 3.32294 0.0707063 4.4428 0.0071877L4.7125 3.39323e-08H24.2875H4.7125Z" />
		</g>
	</symbol>

	<!-- phone -->
	<symbol id="phone" viewBox="0 0 28 28">
		<g>
			<path d="M27.6109 23.283L23.6632 27.199C23.0805 27.7966 22.3081 27.9991 21.5559 28C18.2292 27.9003 15.0848 26.2662 12.503 24.5883C8.26514 21.5053 4.37673 17.6825 1.9363 13.0627C1.0003 11.1255 -0.0979491 8.65382 0.00698087 6.49154C0.0163375 5.67814 0.235531 4.87984 0.808387 4.35554L4.75606 0.409847C5.57581 -0.287423 6.36856 -0.0463433 6.89314 0.765843L10.0691 6.78822C10.4033 7.50169 10.2116 8.26613 9.71285 8.77594L8.25844 10.2296C8.16865 10.3526 8.11149 10.4926 8.11004 10.645C8.66775 12.8038 10.3573 14.7936 11.8499 16.163C13.3425 17.5324 14.9468 19.3876 17.0294 19.8268C17.2868 19.8986 17.6021 19.9238 17.7863 19.7526L19.4782 18.032C20.0614 17.5899 20.9035 17.3738 21.5262 17.7353H21.5558L27.2844 21.1173C28.1254 21.6444 28.2131 22.6632 27.6109 23.283Z" />
		</g>
	</symbol>

	<!-- lupa -->
	<symbol id="lupa" viewBox="0 0 28 28">
		<g>
			<path fill="transparent" d="M10.4286 19.8571C15.6358 19.8571 19.8571 15.6358 19.8571 10.4286C19.8571 5.22132 15.6358 1 10.4286 1C5.22132 1 1 5.22132 1 10.4286C1 15.6358 5.22132 19.8571 10.4286 19.8571Z" stroke-width="1.5" stroke-linecap="round" stroke-linejoin="round"/>
			<path d="M17.5 17.5L23 23" stroke-width="1.5" stroke-linecap="round" stroke-linejoin="round"/>
		</g>
	</symbol>

	<!-- close -->
	<symbol id="close" viewBox="0 0 19 19">
		<g>
			<path d="M11.41 9L18.7 1.71C18.8638 1.5187 18.9494 1.27262 18.9397 1.02095C18.93 0.769272 18.8256 0.530533 18.6475 0.352439C18.4694 0.174344 18.2307 0.0700115 17.979 0.0602903C17.7274 0.0505692 17.4813 0.136176 17.29 0.300002L9.99997 7.59L2.70997 0.290002C2.51867 0.126176 2.2726 0.0405699 2.02092 0.0502911C1.76924 0.0600122 1.53051 0.164344 1.35241 0.342439C1.17432 0.520533 1.06998 0.759272 1.06026 1.01095C1.05054 1.26262 1.13615 1.5087 1.29997 1.7L8.58997 9L1.28997 16.29C1.18529 16.3797 1.10027 16.49 1.04025 16.614C0.980225 16.7381 0.946494 16.8732 0.941175 17.0109C0.935855 17.1487 0.959061 17.286 1.00934 17.4143C1.05961 17.5427 1.13587 17.6592 1.23332 17.7567C1.33078 17.8541 1.44733 17.9304 1.57565 17.9806C1.70398 18.0309 1.84131 18.0541 1.97903 18.0488C2.11675 18.0435 2.25188 18.0098 2.37594 17.9497C2.50001 17.8897 2.61033 17.8047 2.69997 17.7L9.99997 10.41L17.29 17.7C17.4813 17.8638 17.7274 17.9494 17.979 17.9397C18.2307 17.93 18.4694 17.8257 18.6475 17.6476C18.8256 17.4695 18.93 17.2307 18.9397 16.9791C18.9494 16.7274 18.8638 16.4813 18.7 16.29L11.41 9Z" />
		</g>
	</symbol>

	<!-- arrow -->
	<symbol id="arrow" viewBox="0 0 8 4">
		<g>
			<path d="M3.99373 3.99865C3.86044 3.99891 3.73128 3.95243 3.62865 3.86729L0.206069 1.01162C0.0895779 0.914678 0.0163207 0.775372 0.00241378 0.624349C-0.0114932 0.473327 0.0350893 0.322958 0.131913 0.206323C0.228737 0.089688 0.367872 0.0163408 0.518708 0.00241676C0.669545 -0.0115073 0.819728 0.0351323 0.93622 0.132076L3.99373 2.69075L7.05123 0.223457C7.10958 0.176016 7.17672 0.140587 7.24879 0.119209C7.32085 0.0978302 7.39643 0.090923 7.47117 0.0988842C7.54591 0.106845 7.61835 0.129517 7.68431 0.165598C7.75027 0.201679 7.80847 0.250457 7.85554 0.309127C7.90778 0.367852 7.94734 0.436746 7.97175 0.511492C7.99616 0.586238 8.00489 0.665226 7.9974 0.743508C7.9899 0.821789 7.96634 0.897677 7.92818 0.966417C7.89003 1.03516 7.83811 1.09527 7.77568 1.14298L4.3531 3.90156C4.24752 3.97324 4.12099 4.00743 3.99373 3.99865Z" />
		</g>
	</symbol>

</svg>